PathFileType	4	(x/y/z)	S09_M20_T19
DataRate	CameraRate	NumFrames	NumMarkers	Units	OrigDataRate	OrigDataStartFrame	OrigNumFrames
240	240	5	51	mm	240	140	556
Frame#	Time	Sternum			R.Acromium			L.Acromium			Top.Head			R.ASIS			L.ASIS			R.PSIS			L.PSIS			R.Great.Tro			L.Great.Tro			R.Iliac.Crest			L.Iliac.Crest			V.Sacral			R.Thigh.Upper.Post			R.Thigh.Lower.Ant			R.Thigh.Lower.Post			R.Thigh.Upper.Ant			R.Knee.Lat			R.Knee.Med			R.Shank.Upper.Post			R.Shank.Lower.Ant			R.Shank.Lower.Post			R.Shank.Upper.Ant			R.Ankle.Lat			R.Ankle.Med			R.Heel.Upper			R.Heel.Med			R.Heel.Lat			R.Toe.Lat			R.Toe.Med			R.Toe.Tip			L.Thigh.Upper.Post			L.Thigh.Lower.Ant			L.Thigh.Lower.Post			L.Thigh.Upper.Ant			L.Knee.Lat			L.Knee.Med			L.Shank.Upper.Post			L.Shank.Lower.Ant			L.Shank.Lower.Post			L.Shank.Upper.Ant			L.Ankle.Lat			L.Ankle.Med			L.Heel.Upper			L.Heel.Med			L.Heel.Lat			L.Toe.Lat			L.Toe.Med			L.Toe.Tip			Cervical.Spine			Back			
		X1	Y1	Z1	X2	Y2	Z2	X3	Y3	Z3	X4	Y4	Z4	X5	Y5	Z5	X6	Y6	Z6	X7	Y7	Z7	X8	Y8	Z8	X9	Y9	Z9	X10	Y10	Z10	X11	Y11	Z11	X12	Y12	Z12	X13	Y13	Z13	X14	Y14	Z14	X15	Y15	Z15	X16	Y16	Z16	X17	Y17	Z17	X18	Y18	Z18	X19	Y19	Z19	X20	Y20	Z20	X21	Y21	Z21	X22	Y22	Z22	X23	Y23	Z23	X24	Y24	Z24	X25	Y25	Z25	X26	Y26	Z26	X27	Y27	Z27	X28	Y28	Z28	X29	Y29	Z29	X30	Y30	Z30	X31	Y31	Z31	X32	Y32	Z32	X33	Y33	Z33	X34	Y34	Z34	X35	Y35	Z35	X36	Y36	Z36	X37	Y37	Z37	X38	Y38	Z38	X39	Y39	Z39	X40	Y40	Z40	X41	Y41	Z41	X42	Y42	Z42	X43	Y43	Z43	X44	Y44	Z44	X45	Y45	Z45	X46	Y46	Z46	X47	Y47	Z47	X48	Y48	Z48	X49	Y49	Z49	X50	Y50	Z50	X51	Y51	Z51	

140	0.57917	-30.816	1169.9	246	-180.38	1405.2	398.81	-164.57	1413.3	87.201	-157.5	1712.1	246.78	-56.499	1000.8	344.72	-77.544	1006.9	98.166	-283.78	1010.4	287.34	-283.18	1023.3	198.76	-123.07	904.47	421.5	-158.51	917.98	33.882	-150.43	1071.2	398.38	-192.47	1096.8	73.099	-302.5	982.28	237.31	-26.383	672.23	404.3	79.314	610.57	361.55	5.6253	586.33	378.25	41.702	690.01	386.93	91.252	539.93	359.34	79.926	519.11	231.97	107.74	357.47	375.11	196.35	336.28	364.74	142.54	288.87	367.68	157.87	399.4	373.28	264.71	133.87	356.05	282.18	162.46	269.51	225.2	79.517	298.86	255.22	64.914	269.69	246.91	54.129	332.51	378	138.01	397.42	411.63	184.86	299.16	435.36	221.41	348.04	-264.68	677.44	100.58	-203.58	566.48	99.721	-268.77	587.74	120.96	-200.81	652.88	75.136	-236.22	491.1	113.41	-205.79	503.4	244.05	-323.87	376.41	108.9	-291.4	272.07	126.29	-347.61	304.01	120.17	-268.09	345.96	116.17	-393.95	111.82	152.02	-382.19	104.17	245.73	-476.48	81.499	205.5	-465.52	54.109	236.86	-477.9	54.695	176.28	-306.47	41.167	118.15	-265.43	37.288	226.23	-214.38	45.904	164.9	-252.28	1457.7	249.53	-294.25	1189	228.86
141	0.58333	-25.66	1168.8	246.01	-174.89	1404.2	399.09	-159.41	1412.2	87.45	-152.27	1711.1	247.14	-50.775	999.93	344.56	-72.75	1006	98.082	-278.29	1009.4	287.99	-278.01	1022.4	199.44	-117.09	903.58	421.56	-154.15	917.23	33.971	-144.65	1070.2	398.56	-188.12	1095.9	73.42	-297.2	981.34	238.05	-20.39	671.48	404.53	85.105	609.68	361.48	11.462	585.51	378.48	47.647	689.19	386.89	97.128	539.36	359.35	85.056	518.12	231.89	115.71	357.07	375.23	204.54	336.97	364.52	151.33	288.89	367.67	165.32	399.62	373.18	275.46	135.26	355.67	292.29	164.18	269.07	236.4	80.414	298.55	266.54	66.242	269.25	258.63	55.241	332.08	388.84	140.73	396.61	421.54	188.23	298.31	444.91	225.03	347.14	-261.14	677.24	101.04	-200.59	565.96	99.732	-265.58	587.54	121.33	-197.51	652.39	75.241	-233.48	490.7	113.47	-202.41	502.72	243.99	-321.75	376.54	109.04	-289.92	271.97	126.33	-345.92	304.27	120.35	-266.15	345.71	116.2	-393.45	112.33	152.16	-381.64	104.59	245.85	-476.12	82.204	205.65	-465.27	54.768	236.98	-477.68	55.427	176.42	-306.36	41.184	118.19	-265.26	37.232	226.2	-214.19	45.611	164.84	-247	1456.8	249.91	-289.12	1188	229.46
142	0.5875	-20.479	1167.7	246.04	-169.39	1403.3	399.4	-154.25	1411.2	87.709	-147.04	1710.1	247.5	-45.035	999.04	344.4	-67.947	1005.1	98	-272.78	1008.4	288.66	-272.83	1021.4	200.13	-111.07	902.73	421.65	-149.78	916.47	34.076	-138.85	1069.3	398.76	-183.76	1095	73.761	-291.88	980.39	238.8	-14.287	670.79	404.79	90.999	608.86	361.4	17.419	584.75	378.73	53.688	688.43	386.85	103.09	538.82	359.38	90.301	517.19	231.85	123.54	356.68	375.31	212.57	337.57	364.32	159.91	288.9	367.63	172.68	399.79	373.11	285.8	136.52	355.26	302.04	165.76	268.62	247.16	81.235	298.19	277.42	67.467	268.76	269.85	56.257	331.6	399.22	143.2	395.82	431.08	191.32	297.51	454.09	228.32	346.31	-257.54	677.02	101.52	-197.53	565.43	99.752	-262.33	587.31	121.71	-194.16	651.88	75.357	-230.68	490.28	113.56	-198.97	502.01	243.94	-319.55	376.67	109.19	-288.39	271.88	126.38	-344.18	304.55	120.54	-264.15	345.46	116.24	-392.92	112.87	152.3	-381.08	105.03	245.98	-475.74	82.967	205.79	-465	55.487	237.11	-477.45	56.213	176.56	-306.25	41.205	118.23	-265.08	37.184	226.18	-214	45.32	164.78	-241.72	1455.9	250.3	-283.96	1187	230.06
143	0.59167	-15.27	1166.7	246.07	-163.87	1402.5	399.71	-149.07	1410.1	87.977	-141.81	1709.1	247.87	-39.277	998.18	344.25	-63.134	1004.2	97.922	-267.25	1007.4	289.33	-267.61	1020.5	200.83	-104.99	901.91	421.75	-145.4	915.7	34.201	-133.03	1068.4	398.96	-179.37	1094.1	74.124	-286.54	979.44	239.56	-8.0742	670.15	405.06	97.002	608.12	361.3	23.503	584.05	379	59.827	687.74	386.79	109.15	538.31	359.41	95.674	516.33	231.83	131.24	356.29	375.38	220.44	338.07	364.14	168.28	288.87	367.56	179.95	399.89	373.05	295.7	137.64	354.84	311.43	167.17	268.17	257.48	81.96	297.78	287.84	68.568	268.24	280.58	57.155	331.08	409.15	145.4	395.06	440.25	194.09	296.77	462.93	231.27	345.55	-253.89	676.77	102	-194.42	564.88	99.785	-259.01	587.06	122.1	-190.76	651.36	75.486	-227.8	489.86	113.65	-195.45	501.29	243.9	-317.3	376.81	109.35	-286.81	271.79	126.44	-342.39	304.84	120.73	-262.1	345.21	116.29	-392.36	113.45	152.43	-380.49	105.5	246.1	-475.33	83.789	205.92	-464.72	56.267	237.22	-477.2	57.057	176.69	-306.14	41.23	118.27	-264.9	37.144	226.16	-213.8	45.034	164.71	-236.43	1454.9	250.71	-278.77	1186	230.66
144	0.59583	-10.034	1165.7	246.12	-158.34	1401.6	400.04	-143.89	1409.1	88.257	-136.56	1708.1	248.24	-33.502	997.33	344.11	-58.31	1003.3	97.851	-261.69	1006.4	290.02	-262.38	1019.5	201.54	-98.871	901.13	421.88	-140.99	914.91	34.348	-127.21	1067.5	399.17	-174.96	1093.3	74.509	-281.16	978.49	240.34	-1.7505	669.57	405.35	103.11	607.47	361.18	29.715	583.41	379.28	66.063	687.13	386.72	115.3	537.83	359.43	101.18	515.53	231.83	138.81	355.9	375.41	228.16	338.46	363.96	176.42	288.81	367.48	187.15	399.94	373	305.17	138.6	354.41	320.45	168.41	267.71	267.34	82.57	297.35	297.78	69.522	267.71	290.8	57.918	330.54	418.63	147.33	394.34	449.06	196.53	296.06	471.41	233.87	344.84	-250.19	676.49	102.51	-191.24	564.33	99.83	-255.64	586.79	122.5	-187.3	650.83	75.629	-224.85	489.42	113.77	-191.87	500.55	243.87	-314.97	376.96	109.52	-285.18	271.72	126.51	-340.53	305.14	120.94	-259.98	344.96	116.35	-391.78	114.07	152.57	-379.89	106	246.22	-474.9	84.671	206.04	-464.42	57.109	237.33	-476.93	57.96	176.82	-306.01	41.26	118.31	-264.72	37.114	226.13	-213.6	44.752	164.65	-231.13	1454	251.13	-273.55	1185.1	231.26
